%
M48
M72
T01C0.0236
T02C0.0354
T03C0.0394
%
T01
X29125Y5500
X30125Y4500
X30625Y4000
X31625Y4500
X32625Y4500
X32125Y8000
X32125Y9500
X30625Y8000
X35125Y10500
X36125Y12000
X36125Y12657
X33625Y12500
X33625Y13500
X31625Y15000
X30125Y16500
X33625Y19000
X34125Y18500
X35125Y18500
X35125Y21000
X34125Y21000
X33625Y22000
X33125Y22500
X32625Y22000
X31125Y24000
X29625Y25000
X28625Y24000
X28625Y23000
X37625Y21500
T02
X27625Y18500
X27625Y17500
X27625Y16500
X27625Y15500
T03
X27625Y11000
X28625Y11000
X28625Y12000
X28625Y13000
X27625Y13000
X27625Y12000
M30
