G75*
%MOIN*%
%OFA0B0*%
%FSLAX25Y25*%
%IPPOS*%
%LPD*%
%AMOC8*
5,1,8,0,0,1.08239X$1,22.5*
%
%ADD10C,0.00300*%
%ADD11C,0.00400*%
%ADD12C,0.00600*%
%ADD13C,0.00500*%
D10*
X0282400Y0153150D02*
X0282400Y0156853D01*
X0284252Y0156853D01*
X0284869Y0156236D01*
X0284869Y0155002D01*
X0284252Y0154384D01*
X0282400Y0154384D01*
X0286083Y0153150D02*
X0286083Y0156853D01*
X0288552Y0156853D02*
X0288552Y0153150D01*
X0287318Y0154384D01*
X0286083Y0153150D01*
X0289766Y0153150D02*
X0289766Y0156853D01*
X0291618Y0156853D01*
X0292235Y0156236D01*
X0292235Y0155002D01*
X0291618Y0154384D01*
X0289766Y0154384D01*
X0291001Y0154384D02*
X0292235Y0153150D01*
X0291618Y0163150D02*
X0292235Y0163767D01*
X0292235Y0166236D01*
X0291618Y0166853D01*
X0289766Y0166853D01*
X0289766Y0163150D01*
X0291618Y0163150D01*
X0288552Y0163150D02*
X0286083Y0166853D01*
X0284869Y0166853D02*
X0282400Y0166853D01*
X0283634Y0166853D02*
X0283634Y0163150D01*
X0286083Y0163150D02*
X0288552Y0166853D01*
X0287935Y0173150D02*
X0288552Y0173767D01*
X0287935Y0173150D02*
X0286700Y0173150D01*
X0286083Y0173767D01*
X0286083Y0176236D01*
X0286700Y0176853D01*
X0287935Y0176853D01*
X0288552Y0176236D01*
X0289766Y0176853D02*
X0289766Y0174384D01*
X0291001Y0173150D01*
X0292235Y0174384D01*
X0292235Y0176853D01*
X0291618Y0182150D02*
X0292235Y0182767D01*
X0292235Y0185236D01*
X0291618Y0185853D01*
X0289766Y0185853D01*
X0289766Y0182150D01*
X0291618Y0182150D01*
X0288552Y0182150D02*
X0288552Y0185853D01*
X0286083Y0185853D02*
X0288552Y0182150D01*
X0286083Y0182150D02*
X0286083Y0185853D01*
X0284869Y0185236D02*
X0284252Y0185853D01*
X0283017Y0185853D01*
X0282400Y0185236D01*
X0282400Y0182767D01*
X0283017Y0182150D01*
X0284252Y0182150D01*
X0284869Y0182767D01*
X0284869Y0184002D01*
X0283634Y0184002D01*
X0284252Y0176853D02*
X0282400Y0176853D01*
X0282400Y0173150D01*
X0282400Y0174384D02*
X0284252Y0174384D01*
X0284869Y0175002D01*
X0284869Y0176236D01*
X0284252Y0176853D01*
X0283634Y0174384D02*
X0284869Y0173150D01*
D11*
X0280283Y0190200D02*
X0281050Y0190967D01*
X0281050Y0192502D01*
X0280283Y0193269D01*
X0278748Y0194804D02*
X0278748Y0197873D01*
X0276446Y0197106D02*
X0278748Y0194804D01*
X0277213Y0193269D02*
X0276446Y0192502D01*
X0276446Y0190967D01*
X0277213Y0190200D01*
X0280283Y0190200D01*
X0281050Y0197106D02*
X0276446Y0197106D01*
X0270283Y0205992D02*
X0267213Y0205992D01*
X0266446Y0206759D01*
X0266446Y0208294D01*
X0267213Y0209061D01*
X0267213Y0210596D02*
X0266446Y0211363D01*
X0266446Y0212898D01*
X0267213Y0213665D01*
X0267981Y0213665D01*
X0271050Y0210596D01*
X0271050Y0213665D01*
X0270283Y0209061D02*
X0271050Y0208294D01*
X0271050Y0206759D01*
X0270283Y0205992D01*
X0270283Y0225992D02*
X0267213Y0225992D01*
X0266446Y0226759D01*
X0266446Y0228294D01*
X0267213Y0229061D01*
X0267981Y0230596D02*
X0266446Y0232131D01*
X0271050Y0232131D01*
X0271050Y0233665D02*
X0271050Y0230596D01*
X0270283Y0229061D02*
X0271050Y0228294D01*
X0271050Y0226759D01*
X0270283Y0225992D01*
X0270283Y0252700D02*
X0267213Y0252700D01*
X0266446Y0253467D01*
X0266446Y0255002D01*
X0267213Y0255769D01*
X0267213Y0257304D02*
X0266446Y0258071D01*
X0266446Y0259606D01*
X0267213Y0260373D01*
X0267981Y0260373D01*
X0268748Y0259606D01*
X0269515Y0260373D01*
X0270283Y0260373D01*
X0271050Y0259606D01*
X0271050Y0258071D01*
X0270283Y0257304D01*
X0270283Y0255769D02*
X0271050Y0255002D01*
X0271050Y0253467D01*
X0270283Y0252700D01*
X0268748Y0258839D02*
X0268748Y0259606D01*
X0291446Y0260665D02*
X0291446Y0257596D01*
X0293748Y0257596D01*
X0292981Y0259131D01*
X0292981Y0259898D01*
X0293748Y0260665D01*
X0295283Y0260665D01*
X0296050Y0259898D01*
X0296050Y0258363D01*
X0295283Y0257596D01*
X0295283Y0256061D02*
X0296050Y0255294D01*
X0296050Y0253759D01*
X0295283Y0252992D01*
X0292213Y0252992D01*
X0291446Y0253759D01*
X0291446Y0255294D01*
X0292213Y0256061D01*
X0340965Y0250769D02*
X0340965Y0247700D01*
X0340965Y0250002D02*
X0344034Y0250002D01*
X0344034Y0250769D02*
X0344034Y0247700D01*
X0345569Y0247700D02*
X0348638Y0247700D01*
X0350173Y0247700D02*
X0351707Y0247700D01*
X0350940Y0247700D02*
X0350940Y0252304D01*
X0350173Y0252304D02*
X0351707Y0252304D01*
X0353242Y0252304D02*
X0353242Y0249235D01*
X0354777Y0247700D01*
X0356311Y0249235D01*
X0356311Y0252304D01*
X0357846Y0252304D02*
X0357846Y0247700D01*
X0360915Y0247700D01*
X0359381Y0250002D02*
X0357846Y0250002D01*
X0357846Y0252304D02*
X0360915Y0252304D01*
X0360915Y0257700D02*
X0359381Y0259235D01*
X0360148Y0259235D02*
X0357846Y0259235D01*
X0357846Y0257700D02*
X0357846Y0262304D01*
X0360148Y0262304D01*
X0360915Y0261537D01*
X0360915Y0260002D01*
X0360148Y0259235D01*
X0356311Y0257700D02*
X0356311Y0262304D01*
X0353242Y0262304D02*
X0353242Y0257700D01*
X0354777Y0259235D01*
X0356311Y0257700D01*
X0351707Y0260002D02*
X0350940Y0259235D01*
X0348638Y0259235D01*
X0348638Y0257700D02*
X0348638Y0262304D01*
X0350940Y0262304D01*
X0351707Y0261537D01*
X0351707Y0260002D01*
X0345569Y0252304D02*
X0345569Y0247700D01*
X0344034Y0250769D02*
X0342500Y0252304D01*
X0340965Y0250769D01*
X0345569Y0242304D02*
X0347871Y0242304D01*
X0348638Y0241537D01*
X0348638Y0240002D01*
X0347871Y0239235D01*
X0345569Y0239235D01*
X0345569Y0237700D02*
X0345569Y0242304D01*
X0350173Y0242304D02*
X0351707Y0242304D01*
X0350940Y0242304D02*
X0350940Y0237700D01*
X0350173Y0237700D02*
X0351707Y0237700D01*
X0353242Y0237700D02*
X0353242Y0242304D01*
X0356311Y0237700D01*
X0356311Y0242304D01*
X0357846Y0241537D02*
X0357846Y0238467D01*
X0358613Y0237700D01*
X0360148Y0237700D01*
X0360915Y0238467D01*
X0360915Y0240002D01*
X0359381Y0240002D01*
X0360915Y0241537D02*
X0360148Y0242304D01*
X0358613Y0242304D01*
X0357846Y0241537D01*
X0357846Y0232304D02*
X0360148Y0232304D01*
X0360915Y0231537D01*
X0360915Y0228467D01*
X0360148Y0227700D01*
X0357846Y0227700D01*
X0357846Y0232304D01*
X0356311Y0232304D02*
X0356311Y0227700D01*
X0353242Y0227700D02*
X0353242Y0232304D01*
X0354777Y0230769D01*
X0356311Y0232304D01*
X0351707Y0231537D02*
X0350940Y0232304D01*
X0349406Y0232304D01*
X0348638Y0231537D01*
X0348638Y0228467D01*
X0349406Y0227700D01*
X0350940Y0227700D01*
X0351707Y0228467D01*
X0352217Y0159804D02*
X0351450Y0159037D01*
X0351450Y0155967D01*
X0352217Y0155200D01*
X0353752Y0155200D01*
X0354519Y0155967D01*
X0356054Y0155967D02*
X0356054Y0156735D01*
X0356821Y0157502D01*
X0358356Y0157502D01*
X0359123Y0156735D01*
X0359123Y0155967D01*
X0358356Y0155200D01*
X0356821Y0155200D01*
X0356054Y0155967D01*
X0356821Y0157502D02*
X0356054Y0158269D01*
X0356054Y0159037D01*
X0356821Y0159804D01*
X0358356Y0159804D01*
X0359123Y0159037D01*
X0359123Y0158269D01*
X0358356Y0157502D01*
X0354519Y0159037D02*
X0353752Y0159804D01*
X0352217Y0159804D01*
X0299915Y0069804D02*
X0296846Y0069804D01*
X0296846Y0067502D01*
X0298381Y0068269D01*
X0299148Y0068269D01*
X0299915Y0067502D01*
X0299915Y0065967D01*
X0299148Y0065200D01*
X0297613Y0065200D01*
X0296846Y0065967D01*
X0295311Y0065200D02*
X0293777Y0066735D01*
X0294544Y0066735D02*
X0292242Y0066735D01*
X0292242Y0065200D02*
X0292242Y0069804D01*
X0294544Y0069804D01*
X0295311Y0069037D01*
X0295311Y0067502D01*
X0294544Y0066735D01*
D12*
X0317451Y0111201D02*
X0343652Y0111201D01*
X0345049Y0112598D01*
X0345049Y0138799D01*
X0317451Y0138799D01*
X0317451Y0111201D01*
X0340636Y0114200D02*
X0340638Y0114275D01*
X0340644Y0114349D01*
X0340654Y0114423D01*
X0340667Y0114496D01*
X0340685Y0114569D01*
X0340706Y0114640D01*
X0340731Y0114711D01*
X0340760Y0114780D01*
X0340793Y0114847D01*
X0340829Y0114912D01*
X0340868Y0114976D01*
X0340910Y0115037D01*
X0340956Y0115096D01*
X0341005Y0115153D01*
X0341057Y0115206D01*
X0341111Y0115257D01*
X0341168Y0115306D01*
X0341228Y0115350D01*
X0341290Y0115392D01*
X0341354Y0115431D01*
X0341420Y0115466D01*
X0341487Y0115497D01*
X0341557Y0115525D01*
X0341627Y0115549D01*
X0341699Y0115570D01*
X0341772Y0115586D01*
X0341845Y0115599D01*
X0341920Y0115608D01*
X0341994Y0115613D01*
X0342069Y0115614D01*
X0342143Y0115611D01*
X0342218Y0115604D01*
X0342291Y0115593D01*
X0342365Y0115579D01*
X0342437Y0115560D01*
X0342508Y0115538D01*
X0342578Y0115512D01*
X0342647Y0115482D01*
X0342713Y0115449D01*
X0342778Y0115412D01*
X0342841Y0115372D01*
X0342902Y0115328D01*
X0342960Y0115282D01*
X0343016Y0115232D01*
X0343069Y0115180D01*
X0343120Y0115125D01*
X0343167Y0115067D01*
X0343211Y0115007D01*
X0343252Y0114944D01*
X0343290Y0114880D01*
X0343324Y0114814D01*
X0343355Y0114745D01*
X0343382Y0114676D01*
X0343405Y0114605D01*
X0343424Y0114533D01*
X0343440Y0114460D01*
X0343452Y0114386D01*
X0343460Y0114312D01*
X0343464Y0114237D01*
X0343464Y0114163D01*
X0343460Y0114088D01*
X0343452Y0114014D01*
X0343440Y0113940D01*
X0343424Y0113867D01*
X0343405Y0113795D01*
X0343382Y0113724D01*
X0343355Y0113655D01*
X0343324Y0113586D01*
X0343290Y0113520D01*
X0343252Y0113456D01*
X0343211Y0113393D01*
X0343167Y0113333D01*
X0343120Y0113275D01*
X0343069Y0113220D01*
X0343016Y0113168D01*
X0342960Y0113118D01*
X0342902Y0113072D01*
X0342841Y0113028D01*
X0342778Y0112988D01*
X0342713Y0112951D01*
X0342647Y0112918D01*
X0342578Y0112888D01*
X0342508Y0112862D01*
X0342437Y0112840D01*
X0342365Y0112821D01*
X0342291Y0112807D01*
X0342218Y0112796D01*
X0342143Y0112789D01*
X0342069Y0112786D01*
X0341994Y0112787D01*
X0341920Y0112792D01*
X0341845Y0112801D01*
X0341772Y0112814D01*
X0341699Y0112830D01*
X0341627Y0112851D01*
X0341557Y0112875D01*
X0341487Y0112903D01*
X0341420Y0112934D01*
X0341354Y0112969D01*
X0341290Y0113008D01*
X0341228Y0113050D01*
X0341168Y0113094D01*
X0341111Y0113143D01*
X0341057Y0113194D01*
X0341005Y0113247D01*
X0340956Y0113304D01*
X0340910Y0113363D01*
X0340868Y0113424D01*
X0340829Y0113488D01*
X0340793Y0113553D01*
X0340760Y0113620D01*
X0340731Y0113689D01*
X0340706Y0113760D01*
X0340685Y0113831D01*
X0340667Y0113904D01*
X0340654Y0113977D01*
X0340644Y0114051D01*
X0340638Y0114125D01*
X0340636Y0114200D01*
X0369112Y0067461D02*
X0368045Y0066394D01*
X0368045Y0064259D01*
X0369112Y0063191D01*
X0370180Y0063191D01*
X0371247Y0064259D01*
X0371247Y0066394D01*
X0372315Y0067461D01*
X0373382Y0067461D01*
X0374450Y0066394D01*
X0374450Y0064259D01*
X0373382Y0063191D01*
X0371247Y0061016D02*
X0372315Y0059948D01*
X0372315Y0056745D01*
X0374450Y0056745D02*
X0368045Y0056745D01*
X0368045Y0059948D01*
X0369112Y0061016D01*
X0371247Y0061016D01*
X0371247Y0054570D02*
X0371247Y0052435D01*
X0371247Y0054570D02*
X0373382Y0054570D01*
X0374450Y0053503D01*
X0374450Y0051368D01*
X0373382Y0050300D01*
X0369112Y0050300D01*
X0368045Y0051368D01*
X0368045Y0053503D01*
X0369112Y0054570D01*
D13*
X0271250Y0105000D02*
X0271250Y0135000D01*
X0291250Y0135000D01*
X0291250Y0105000D01*
X0271250Y0105000D01*
X0368250Y0228000D02*
X0370250Y0230000D01*
X0368250Y0232000D01*
X0368250Y0228000D01*
X0370250Y0228000D02*
X0370250Y0230000D01*
X0370250Y0232000D01*
X0370250Y0238000D02*
X0370250Y0240000D01*
X0368250Y0238000D01*
X0368250Y0242000D01*
X0370250Y0240000D01*
X0370250Y0242000D01*
X0370250Y0248000D02*
X0370250Y0250000D01*
X0368250Y0248000D01*
X0368250Y0252000D01*
X0370250Y0250000D01*
X0370250Y0252000D01*
X0370250Y0258000D02*
X0370250Y0260000D01*
X0368250Y0258000D01*
X0368250Y0262000D01*
X0370250Y0260000D01*
X0370250Y0262000D01*
M02*
