G75*
%MOIN*%
%OFA0B0*%
%FSLAX25Y25*%
%IPPOS*%
%LPD*%
%AMOC8*
5,1,8,0,0,1.08239X$1,22.5*
%
%ADD10R,0.05906X0.05118*%
%ADD11R,0.04500X0.03000*%
%ADD12R,0.05000X0.02000*%
%ADD13R,0.02000X0.05000*%
%ADD14R,0.02756X0.16535*%
%ADD15R,0.02756X0.12598*%
%ADD16R,0.05709X0.05512*%
%ADD17R,0.03543X0.05118*%
D10*
X0286250Y0191260D03*
X0286250Y0198740D03*
X0276250Y0206260D03*
X0276250Y0213740D03*
X0276250Y0226260D03*
X0276250Y0233740D03*
X0276250Y0253760D03*
X0276250Y0261240D03*
X0286250Y0260740D03*
X0286250Y0253260D03*
D11*
X0298250Y0232500D03*
X0298250Y0227500D03*
X0298250Y0222500D03*
X0298250Y0217500D03*
X0298250Y0212500D03*
X0298250Y0207500D03*
X0298250Y0202500D03*
X0298250Y0197500D03*
X0314250Y0197500D03*
X0314250Y0202500D03*
X0314250Y0207500D03*
X0314250Y0212500D03*
X0314250Y0217500D03*
X0314250Y0222500D03*
X0314250Y0227500D03*
X0314250Y0232500D03*
D12*
X0314350Y0136024D03*
X0314350Y0132874D03*
X0314350Y0129724D03*
X0314350Y0126575D03*
X0314350Y0123425D03*
X0314350Y0120276D03*
X0314350Y0117126D03*
X0314350Y0113976D03*
X0348150Y0113976D03*
X0348150Y0117126D03*
X0348150Y0120276D03*
X0348150Y0123425D03*
X0348150Y0126575D03*
X0348150Y0129724D03*
X0348150Y0132874D03*
X0348150Y0136024D03*
D13*
X0342274Y0141900D03*
X0339124Y0141900D03*
X0335974Y0141900D03*
X0332825Y0141900D03*
X0329675Y0141900D03*
X0326526Y0141900D03*
X0323376Y0141900D03*
X0320226Y0141900D03*
X0320226Y0108100D03*
X0323376Y0108100D03*
X0326526Y0108100D03*
X0329675Y0108100D03*
X0332825Y0108100D03*
X0335974Y0108100D03*
X0339124Y0108100D03*
X0342274Y0108100D03*
D14*
X0287746Y0019409D03*
X0291683Y0019409D03*
X0295620Y0019409D03*
X0299557Y0019409D03*
X0303494Y0019409D03*
X0307431Y0019409D03*
X0311368Y0019409D03*
X0315305Y0019409D03*
X0319242Y0019409D03*
X0338927Y0019409D03*
X0342864Y0019409D03*
X0346801Y0019409D03*
X0350738Y0019409D03*
D15*
X0354675Y0021378D03*
D16*
X0365116Y0230000D03*
X0373384Y0230000D03*
X0373384Y0240000D03*
X0365116Y0240000D03*
X0365116Y0250000D03*
X0373384Y0250000D03*
X0373384Y0260000D03*
X0365116Y0260000D03*
D17*
X0345384Y0245000D03*
X0337116Y0245000D03*
X0337116Y0230000D03*
X0345384Y0230000D03*
X0342116Y0220000D03*
X0350384Y0220000D03*
X0345384Y0170000D03*
X0337116Y0170000D03*
X0352116Y0150000D03*
X0360384Y0150000D03*
X0300384Y0075000D03*
X0292116Y0075000D03*
M02*
